<?xml version="1.0" standalone="no"?>
<!DOCTYPE svg PUBLIC "-//W3C//DTD SVG 20010904//EN"
 "http://www.w3.org/TR/2001/REC-SVG-20010904/DTD/svg10.dtd">
<svg version="1.0" xmlns="http://www.w3.org/2000/svg"
 width="256.000000pt" height="256.000000pt" viewBox="0 0 256.000000 256.000000"
 preserveAspectRatio="xMidYMid meet">
<metadata>
Created by potrace 1.11, written by Peter Selinger 2001-2013
</metadata>
<g transform="translate(0.000000,256.000000) scale(0.100000,-0.100000)"
fill="#000000" stroke="none">
<path d="M322 2243 c-4 -1 -23 -4 -43 -7 -40 -7 -94 -53 -109 -92 -6 -15 -10
-356 -10 -868 l0 -843 23 -34 c12 -19 41 -43 64 -55 41 -21 45 -21 1040 -20
l998 1 35 22 c19 12 44 37 55 55 20 32 20 52 21 863 1 489 -3 844 -8 865 -13
45 -52 86 -97 101 -27 9 -287 12 -998 13 -530 1 -966 0 -971 -1z m557 -562
l239 -239 -237 -236 c-130 -130 -240 -236 -244 -236 -4 0 -42 34 -84 76 l-75
77 160 160 160 160 -160 159 -160 160 78 79 c43 43 80 79 81 79 2 0 110 -107
242 -239z m862 -560 c12 -1 15 -16 16 -79 l1 -79 -322 0 -321 0 2 66 c1 36 2
73 2 81 1 13 41 15 304 13 166 -1 309 -2 318 -2z"/>
</g>
</svg>
